<svg width="51" height="50" viewBox="0 0 51 50" fill="none" xmlns="http://www.w3.org/2000/svg">
<g id="loc" clip-path="url(#clip0_185_43)">
<g id="Group">
<g id="Group_2">
<path id="Vector" d="M25.5615 6C17.8353 6 11.5615 12.2738 11.5615 20C11.5615 24.2812 15.0072 30.1329 18.4004 35.0342C21.7936 39.9355 25.1846 43.8281 25.1846 43.8281C25.2795 43.9371 25.417 43.9996 25.5615 43.9996C25.7061 43.9996 25.8435 43.9371 25.9385 43.8281C25.9385 43.8281 29.3294 39.9355 32.7227 35.0342C36.1159 30.1329 39.5615 24.2812 39.5615 20C39.5615 12.2738 33.2877 6 25.5615 6ZM25.5615 7C32.7473 7 38.5615 12.8142 38.5615 20C38.5615 23.7188 35.2572 29.6171 31.9004 34.4658C28.845 38.8792 26.0859 42.1074 25.5615 42.7168C25.0372 42.1074 22.2781 38.8792 19.2227 34.4658C15.8659 29.6171 12.5615 23.7188 12.5615 20C12.5615 12.8142 18.3757 7 25.5615 7ZM25.5615 9.5C19.7654 9.5 15.0615 14.2039 15.0615 20C15.0615 25.7961 19.7654 30.5 25.5615 30.5C31.2712 30.5 35.9116 25.9331 36.0488 20.2559C36.052 20.1178 35.9427 20.0033 35.8047 20.0001C35.6666 19.9968 35.5521 20.1061 35.5488 20.2441C35.418 25.6559 31.0049 30 25.5615 30C20.0356 30 15.5615 25.5259 15.5615 20C15.5615 14.4741 20.0356 10 25.5615 10C27.2371 10 28.8107 10.4161 30.1953 11.1455C30.2747 11.191 30.3726 11.1894 30.4505 11.1415C30.5284 11.0936 30.574 11.0069 30.5692 10.9155C30.5645 10.8242 30.5102 10.7427 30.4277 10.7031C28.9743 9.93749 27.32 9.5 25.5615 9.5H25.5615ZM31.6152 11.498C31.5088 11.503 31.4173 11.5748 31.3871 11.677C31.3569 11.7792 31.3948 11.8892 31.4814 11.9512C32.2318 12.5064 32.9023 13.1632 33.4717 13.9023C33.524 13.9788 33.6144 14.0201 33.7065 14.0095C33.7985 13.999 33.8772 13.9384 33.9109 13.852C33.9446 13.7657 33.9278 13.6678 33.8672 13.5977C33.2696 12.8218 32.5669 12.1316 31.7793 11.5488C31.7323 11.5131 31.6742 11.4951 31.6152 11.498V11.498ZM25.5615 12C21.1462 12 17.5615 15.5847 17.5615 20C17.5615 24.4153 21.1462 28 25.5615 28C29.9768 28 33.5615 24.4153 33.5615 20C33.5615 15.5847 29.9768 12 25.5615 12ZM25.5615 12.5C29.7066 12.5 33.0615 15.8549 33.0615 20C33.0615 24.1451 29.7066 27.5 25.5615 27.5C21.4164 27.5 18.0615 24.1451 18.0615 20C18.0615 15.8549 21.4164 12.5 25.5615 12.5ZM34.6357 14.9971C34.5475 14.9968 34.4656 15.043 34.4203 15.1188C34.375 15.1946 34.373 15.2886 34.415 15.3662C34.6601 15.8338 34.8704 16.3222 35.04 16.8291C35.0647 16.9182 35.1365 16.9865 35.2268 17.0066C35.317 17.0266 35.411 16.9952 35.4711 16.9249C35.5312 16.8547 35.5475 16.7569 35.5137 16.6709C35.3353 16.1378 35.1154 15.6242 34.8584 15.1338C34.8158 15.05 34.7298 14.9972 34.6357 14.9971L34.6357 14.9971Z" fill="#CFAC74"/>
</g>
</g>
</g>
<defs>
<clipPath id="clip0_185_43">
<rect width="50" height="50" fill="white" transform="translate(0.561523)"/>
</clipPath>
</defs>
</svg>
