<svg xmlns="http://www.w3.org/2000/svg" xmlns:xlink="http://www.w3.org/1999/xlink" viewBox="0 0 466.24 138.9"><defs><style>.b4cf018c-a63e-47ee-a8e0-00f344354ba3{font-size:23.45px;fill:#cfac74;font-family:Montserrat-SemiBold, Montserrat;font-weight:600;letter-spacing:-0.01em;}.a4b9c2e7-48af-429e-8eaa-16e5f92db08a{letter-spacing:-0.03em;}.a8f7fe98-68c0-4cb0-8f04-9fd421f7bbce{letter-spacing:-0.02em;}.a1d4989c-9816-460c-801e-e6ca038768de{letter-spacing:0em;}.a8258acf-e892-46a2-8ea0-5385b2cb74ad{letter-spacing:-0.02em;}.a9c3bb64-4876-42b2-9071-23425dfd89c6{letter-spacing:-0.04em;}.f2a061a9-e6a4-4a25-b07d-283b6aa18413{letter-spacing:-0.01em;}.ba40fe71-e82d-4fee-84f2-04eb1c380d56{letter-spacing:-0.02em;}.a5de24bc-8e79-47f8-9b94-76f0f1d67283{letter-spacing:0em;}.a5dc365c-2ddc-45fd-a50b-f8e614699c3c{fill:none;stroke-miterlimit:10;stroke:url(#a8633607-c80e-4354-86ce-5cdf174a131b);}.ee881def-0d26-4170-a16c-81b4d56d5e26{fill:url(#b8e5a69f-ad22-4f8a-b46a-663c2c289c78);}.bc42be95-b369-487d-8465-46f0d879064a{fill:url(#ff3f3191-d2f6-49b7-8b24-a9f804bb7922);}.ed2abda1-d67f-4a85-ba4b-86573079b85e{fill:url(#a240c36e-28ed-4429-84a3-acc1a9477a55);}.edb1b621-ed4c-4cd8-b6f5-2ed501cf6465{fill:url(#f0ecd173-09c7-43e0-a7db-662e49f3ed33);}</style><linearGradient id="a8633607-c80e-4354-86ce-5cdf174a131b" x1="91.99" y1="79.79" x2="140.95" y2="79.79" gradientUnits="userSpaceOnUse"><stop offset="0" stop-color="#e0ad4b"/><stop offset="0.66" stop-color="#f5ee97"/><stop offset="1" stop-color="#e1b04f"/></linearGradient><linearGradient id="b8e5a69f-ad22-4f8a-b46a-663c2c289c78" x1="83.59" y1="88.69" x2="165.26" y2="88.69" xlink:href="#a8633607-c80e-4354-86ce-5cdf174a131b"/><linearGradient id="ff3f3191-d2f6-49b7-8b24-a9f804bb7922" x1="116.64" y1="66.4" x2="125.84" y2="66.4" xlink:href="#a8633607-c80e-4354-86ce-5cdf174a131b"/><linearGradient id="a240c36e-28ed-4429-84a3-acc1a9477a55" x1="66.64" y1="93.56" x2="132.26" y2="93.56" xlink:href="#a8633607-c80e-4354-86ce-5cdf174a131b"/><linearGradient id="f0ecd173-09c7-43e0-a7db-662e49f3ed33" x1="58.6" y1="69.86" x2="90.51" y2="69.86" xlink:href="#a8633607-c80e-4354-86ce-5cdf174a131b"/></defs><g id="b2671d53-01ae-4555-896b-a049abbec218" data-name="Слой 1"><text class="b4cf018c-a63e-47ee-a8e0-00f344354ba3" transform="translate(115.27 108.45)">С<tspan class="a4b9c2e7-48af-429e-8eaa-16e5f92db08a" x="16.72" y="0">Т</tspan><tspan class="a8f7fe98-68c0-4cb0-8f04-9fd421f7bbce" x="30.55" y="0">У</tspan><tspan class="a1d4989c-9816-460c-801e-e6ca038768de" x="46.52" y="0">ДИЯ </tspan><tspan class="a8258acf-e892-46a2-8ea0-5385b2cb74ad" x="108.56" y="0">К</tspan><tspan class="a9c3bb64-4876-42b2-9071-23425dfd89c6" x="124.95" y="0">Р</tspan><tspan class="f2a061a9-e6a4-4a25-b07d-283b6aa18413" x="140.75" y="0">А</tspan><tspan class="a1d4989c-9816-460c-801e-e6ca038768de" x="158.73" y="0">СИВЫХ В</tspan><tspan class="ba40fe71-e82d-4fee-84f2-04eb1c380d56" x="276.27" y="0">О</tspan><tspan class="a5de24bc-8e79-47f8-9b94-76f0f1d67283" x="295.61" y="0">ЛОС</tspan></text><path d="M245.54,36.9a2,2,0,0,1,0-.6c-.8.35-1.58.71-2.35,1.12a24.41,24.41,0,0,0-3,1.82,42.87,42.87,0,0,0-5.51,4.67q-2.66,2.66-5,5.46T225.17,55l-2.08,2.69-1.94,2.45h-6.82q1.08-2,2.11-4c.68-1.33,1.37-2.69,2.05-4.09s1.46-2.73,2.22-4,1.56-2.47,2.4-3.62l1.8-1.26c.58-.41,1.13-.83,1.66-1.26A14,14,0,0,0,228,40.5c.45-.5.89-1,1.33-1.59A2.65,2.65,0,0,0,230,37.6a.5.5,0,0,0-.56-.56,2.38,2.38,0,0,0-1.45.75,21.91,21.91,0,0,0-2.52,2.8c-.41.53-.84,1.07-1.29,1.61s-.92,1.1-1.42,1.66a15.2,15.2,0,0,1-2.24,1.31,5.46,5.46,0,0,1-2.24.56,3.37,3.37,0,0,1-.66-.1.75.75,0,0,1-.7-.79,4.28,4.28,0,0,1,.42-1.45,4.93,4.93,0,0,0,.75-2.43,3.12,3.12,0,0,0-.51-1.72,6.87,6.87,0,0,0-1.64-1.64,5.82,5.82,0,0,0-1.87-.84,9.42,9.42,0,0,0-2.7-.37,16,16,0,0,0-2.9.28,16.18,16.18,0,0,0-1.61.37c-.54.16-1.1.34-1.66.56l-1.14.52c-.42.18-.88.4-1.38.65-1,.53-2.1,1.14-3.22,1.82a40.85,40.85,0,0,0-3.36,2.52c-.56.5-1.09,1-1.59,1.54a18.88,18.88,0,0,0-1.4,1.68,15.56,15.56,0,0,0-2.2,3.93,12.79,12.79,0,0,0-.84,4.62,6.09,6.09,0,0,0,.42,2.33,8.33,8.33,0,0,0,.56,1,4.77,4.77,0,0,0,.75.86,6.52,6.52,0,0,0,4.53,1.68,10.49,10.49,0,0,0,5.09-1.31,17.24,17.24,0,0,0,2.34-1.51,14.45,14.45,0,0,0,2-1.94,19.46,19.46,0,0,0,3.08-4.9A13.91,13.91,0,0,0,210,45.45a16.41,16.41,0,0,1-1.64,5.13A20.84,20.84,0,0,1,207,53.06a19.6,19.6,0,0,1-1.73,2.19,17.71,17.71,0,0,1-4.2,3.41A9.69,9.69,0,0,1,196.17,60a5.68,5.68,0,0,1-4-1.45,5,5,0,0,1-1.59-3.92,12.22,12.22,0,0,1,.93-4.72A17.83,17.83,0,0,1,193.93,46c.5-.59,1-1.15,1.54-1.68a15.31,15.31,0,0,1,1.68-1.45c.59-.43,1.18-.85,1.75-1.24s1.13-.73,1.66-1.05c1.12-.65,2.1-1.16,2.94-1.54l1.87-.84a19.81,19.81,0,0,1,3.22-.93,17.19,17.19,0,0,1,3-.28,12.55,12.55,0,0,1,2.38.23,4.71,4.71,0,0,1,1.73.8,1.06,1.06,0,0,1,.6,1.07,3.11,3.11,0,0,1-.42,1.54c-.28.53-.5,1-.65,1.31a3.21,3.21,0,0,0-.61,1.87,2.59,2.59,0,0,0,.75,1.91,2.5,2.5,0,0,0,1.82.79h.14A6,6,0,0,0,219.8,46c.37-.16.72-.31,1-.47s.61-.29.86-.42c-.43.5-.88,1-1.33,1.57s-.89,1.13-1.33,1.75-.93,1.24-1.38,1.87-.89,1.26-1.33,1.91l-1.31,2c-.43.66-.85,1.32-1.26,2-.81,1.34-1.58,2.66-2.33,4h-2.52l-.14.14a1,1,0,0,0-.19.28q-.28.33-.42.33H211c-.43.71-.88,1.46-1.33,2.24s-.92,1.57-1.42,2.38-1.07,1.63-1.61,2.47-1.13,1.67-1.75,2.48c-1.28,1.65-2.63,3.24-4.07,4.76A27.46,27.46,0,0,1,196,79.3a24,24,0,0,1-5.51,2.8,18.37,18.37,0,0,1-6.3,1.07,12.14,12.14,0,0,1-3.55-.51,4.22,4.22,0,0,1-2.38-1.82,3.79,3.79,0,0,1-.24-1.17,1.78,1.78,0,0,1,.42-1.16,1.84,1.84,0,0,1,1.5-.57.67.67,0,0,0,.65-.32,2.31,2.31,0,0,0,.14-.35c0-.11.06-.23.1-.35a1.25,1.25,0,0,0-.14-.56,1.31,1.31,0,0,0-1-.52,2.15,2.15,0,0,0-.51.1,1.42,1.42,0,0,0-.36.14l-.35.18a1.94,1.94,0,0,0-.84,1.12,5.43,5.43,0,0,0-.23,1.45c0,.19,0,.38,0,.56s0,.38.07.56a2.63,2.63,0,0,0,.14.52c.07.15.13.31.19.46a4.41,4.41,0,0,0,2.57,2.34,10.5,10.5,0,0,0,3.92.7,24.59,24.59,0,0,0,6.77-.94,29,29,0,0,0,6.07-2.66,32.71,32.71,0,0,0,5.32-3.92c.85-.75,1.65-1.52,2.41-2.31a32.39,32.39,0,0,0,2.17-2.5,46.83,46.83,0,0,0,3.78-5.32,50.11,50.11,0,0,0,2.94-5.46h6.92c-.35.52-.71,1.09-1.08,1.68s-.75,1.21-1.12,1.86-.73,1.3-1.07,1.94l-1,1.89c-.65,1.28-1.21,2.45-1.68,3.5-.25.53-.46,1-.63,1.45s-.31.81-.4,1.12a8.79,8.79,0,0,0-.37,1.36c-.1.46-.17.93-.24,1.4s-.11,1-.14,1.4,0,.87,0,1.31a10.49,10.49,0,0,0,.51,3.68A6.73,6.73,0,0,0,216.25,87a9.11,9.11,0,0,0,4.62,1.16,13.53,13.53,0,0,0,4.76-.88c.78-.29,1.52-.62,2.26-1a2.35,2.35,0,0,1,.07-.7c-.61.32-1.21.63-1.81.88a11.56,11.56,0,0,1-4.72,1A8.94,8.94,0,0,1,217,86.4a5.47,5.47,0,0,1-2.57-3.32,1.93,1.93,0,0,1-.12-.42c0-.12,0-.26-.07-.42v-1a15.47,15.47,0,0,1,.42-3.46c.16-.62.33-1.2.52-1.75a11.92,11.92,0,0,1,.65-1.56c.25-.5.5-1,.75-1.54s.53-1.09.84-1.68.62-1.18.93-1.75.64-1.16,1-1.75.69-1.19,1-1.78.71-1.18,1.05-1.77c.75-1.15,1.5-2.27,2.24-3.36h7.47l.66-.75h-7.57q2-2.52,4-5.37c.66-.94,1.32-1.86,2-2.78s1.34-1.83,2-2.73,1.43-1.8,2.15-2.69,1.44-1.73,2.19-2.54a33.82,33.82,0,0,1,4.81-4.39,23.09,23.09,0,0,1,4.2-2.53A1.13,1.13,0,0,0,245.54,36.9ZM228,38.82a.76.76,0,0,1,.51-.33c.07,0,.1,0,.1.09a1,1,0,0,1-.24.52,8.54,8.54,0,0,1-.84,1c-.18.15-.37.32-.56.51a5.27,5.27,0,0,1-.56.51l-1.12,1-.51.45-.42.39Z" transform="translate(-58.6 -24.11)"/><path d="M254.05,62.07l-8,12.51a28.47,28.47,0,0,1-1.68,2.31,28.1,28.1,0,0,1-2,2.18c-.71.71-1.45,1.41-2.21,2.1s-1.55,1.35-2.36,2a6.34,6.34,0,0,1-3.74,1.73,1.33,1.33,0,0,1-1-.37,2.49,2.49,0,0,1-.32-1.54,18.21,18.21,0,0,1,.56-1.78,10.46,10.46,0,0,1,.46-1c.19-.34.41-.7.66-1.07l11.11-17.09h-2L233.22,78c-.28.43-.53.87-.77,1.31s-.44.87-.63,1.3a6.75,6.75,0,0,0-.56,2.52,1.4,1.4,0,0,0,.05.42,1.6,1.6,0,0,0,0,.43,1.64,1.64,0,0,0,.7,1.07,2.76,2.76,0,0,0,1.73.51,4.5,4.5,0,0,0,2-.46,11.91,11.91,0,0,0,2.43-1.59c1-.84,2-1.76,3-2.76s1.94-1.91,2.66-2.66l-4.5,7.62a29,29,0,0,1-3.16,1.76,20.36,20.36,0,0,0-2.79,1.7c-1,.65.56-.5-.43.25s-2,1.53-3,2.34-2,1.73-3,2.68-2,2-2.92,3.06a35.93,35.93,0,0,0-5,7.61,8.82,8.82,0,0,0-.66,1.82,9.36,9.36,0,0,0-.14,1.45,1.62,1.62,0,0,0,.42,1.31,1.46,1.46,0,0,0,1.08.42,4.18,4.18,0,0,0,1.77-.47,13.21,13.21,0,0,0,2-1.17,12.13,12.13,0,0,0,1.87-1.54,8.92,8.92,0,0,0,1.4-1.73q2.1-2.61,4.18-5.16a44.65,44.65,0,0,0,3.79-5.3c2-3.3,2.83-4.51,5.11-8,0,0,0,0,0,0l.15-.26.69-1.2.51-.88h0l0-.06.15-.26.21-.34a.42.42,0,0,1,.09-.14h0l0-.07a.56.56,0,0,0,.05-.08l.09-.14h0L256,62.07Zm-17.3,28c-1.12,1.65-2.25,3.3-3.34,5s-2.24,3.34-3.46,5-2.49,3.33-3.83,5a18.59,18.59,0,0,1-1.61,1.84,11.14,11.14,0,0,1-1.7,1.42,5.61,5.61,0,0,1-2.85,1.22c-.81,0-1.21-.45-1.21-1.36a5.16,5.16,0,0,1,.18-1.26,4.9,4.9,0,0,1,.31-.81l.44-1a39.27,39.27,0,0,1,4.2-6.35,45.64,45.64,0,0,1,4.91-5.14c.87-.78,1.75-1.53,2.66-2.26s1.83-1.44,2.8-2.13-.68.29.38-.29c1.81-1,1-.41,4.12-2.11C237.57,88.56,238,88.12,236.75,90Z" transform="translate(-58.6 -24.11)"/><path d="M259.07,72l-1,.75c-.44.32-1,.7-1.64,1.15s-1.35.94-2.11,1.45-1.57,1.07-2.41,1.66l-2.69,1.79-2.84,1.9-2.88,1.86-2.69,1.77L238.29,86l-1.65,1.09a2,2,0,0,1-.35.3l0,0c-.48.63-.76,1-.63.94l1.71-1.12,2-1.28q1-.65,2.13-1.38l4.49-2.9c.75-.52,1.49-1,2.23-1.49s1.49-1,2.23-1.46q2.22-1.43,4.07-2.71c.62-.43,1.19-.82,1.71-1.16s1-.68,1.41-1l1.13-.8.69-.54Z" transform="translate(-58.6 -24.11)"/><path d="M280.66,72.58c-.34.49-.88,1.18-1.63,2-.35.44-.72.87-1.12,1.31s-.83.9-1.26,1.4c-.91,1-1.89,2-2.95,2.94-.53.5-1,1-1.54,1.38s-1,.83-1.54,1.23-1,.77-1.51,1.08a16.91,16.91,0,0,1-1.48.84,5.7,5.7,0,0,1-2.56.75,2.3,2.3,0,0,1-1.68-.7,2.43,2.43,0,0,1-.47-.94,4.65,4.65,0,0,1-.19-1.49,6.53,6.53,0,0,1,.19-1.64,6.83,6.83,0,0,1,.65-1.54l7.66-12.7a6.79,6.79,0,0,0,.61-1.45,5.54,5.54,0,0,0,.18-1.4,1.88,1.88,0,0,0-.23-1,.71.71,0,0,0-.61-.38,1.93,1.93,0,0,0-.88.33,29.07,29.07,0,0,0-3.18,2.47c-.62.53-1.24,1.11-1.87,1.73s-1.24,1.28-1.86,2-1.24,1.4-1.85,2.13-1.22,1.48-1.84,2.26-1.15,1.54-1.68,2.29-1,1.48-1.45,2.19l-15.18,29.41h-1.87l29.94-54.53h1.86L261.33,70c.41-.47.8-.91,1.19-1.33l1.1-1.19c.34-.38.68-.74,1-1.08s.66-.67,1-1,.67-.61,1-.91a10.91,10.91,0,0,1,1-.82c.34-.25.68-.49,1-.72s.71-.47,1.12-.72a2.92,2.92,0,0,1,1.58-.47,2.13,2.13,0,0,1,1.73.79,3,3,0,0,1,.65,2,4.81,4.81,0,0,1-.18,1.36,4.7,4.7,0,0,1-.24.65,4.36,4.36,0,0,1-.37.7L265.44,80c-.22.37-.42.73-.61,1.07s-.36.67-.51,1a4.09,4.09,0,0,0-.42,1.59,1.53,1.53,0,0,0,.14.66,1.59,1.59,0,0,0,.61.56,2,2,0,0,0,.79.14,4.66,4.66,0,0,0,2.19-.75c.44-.25.88-.52,1.34-.82a15.55,15.55,0,0,0,1.42-1.05q.75-.6,1.47-1.26c.48-.44,1-.9,1.52-1.4q1.55-1.45,2.94-2.94l1.28-1.47,1.24-1.43c.37-.46.71-.9,1-1.3l.81-1.13Z" transform="translate(-58.6 -24.11)"/><path d="M302.84,72.3v.09l-.49.61c-.2.25-.46.57-.77,1s-.59.82-.93,1.26l-1.12,1.4c-.81,1-1.69,2-2.62,3-.5.53-1,1-1.47,1.54a16.69,16.69,0,0,1-1.52,1.4,14.94,14.94,0,0,1-1.52,1.19c-.51.36-1,.7-1.56,1a6.23,6.23,0,0,1-3,.84,1.86,1.86,0,0,1-1.54-.65,2.68,2.68,0,0,1-.51-1.69,7.08,7.08,0,0,1,.51-2.33c.16-.44.34-.89.56-1.35s.47-1,.75-1.5c-.34.38-.75.78-1.22,1.22s-1,.91-1.49,1.44-1.05,1-1.56,1.43l-1.52,1.33a11.91,11.91,0,0,1-2.43,1.59,4.53,4.53,0,0,1-2,.46,2.39,2.39,0,0,1-2-.74,3.07,3.07,0,0,1-.51-1.69,6.75,6.75,0,0,1,.56-2.52c.19-.43.4-.87.63-1.3s.49-.88.77-1.31l10.46-16h1.87L278.09,79.16c-.25.37-.46.73-.65,1.07a10.69,10.69,0,0,0-.47,1c-.22.6-.4,1.19-.56,1.78a2.47,2.47,0,0,0,.33,1.54,1.31,1.31,0,0,0,1,.37,6.32,6.32,0,0,0,3.73-1.73q2.39-2,4.53-4.1a26.32,26.32,0,0,0,3.69-4.49l8.13-12.51h1.87L289.21,78.69q-.24.38-.45.75c-.14.25-.29.5-.44.75s-.3.49-.44.74-.28.5-.4.75a10.4,10.4,0,0,0-.56,1.4,3.62,3.62,0,0,0-.23,1.12c.09.69.54,1,1.35,1a5.18,5.18,0,0,0,2.66-.89,16.76,16.76,0,0,0,2.94-2.19c.5-.44,1-.91,1.45-1.4l1.45-1.54c.49-.53,1-1.06,1.4-1.59L299.25,76c.4-.53.78-1,1.14-1.49l1.05-1.36.89-1.1a8.79,8.79,0,0,0,.6-.77Z" transform="translate(-58.6 -24.11)"/><path d="M322.5,62.07h1.87L313.91,78.69c-.31.47-.62,1-.91,1.47s-.57,1-.82,1.52a10.21,10.21,0,0,0-.58,1.4,3.79,3.79,0,0,0-.21,1.12c.09.69.54,1,1.35,1a5.75,5.75,0,0,0,3.13-1.17,25,25,0,0,0,3.64-3.1q1.92-1.93,4-4.44c1.37-1.66,2.75-3.4,4.16-5.21l-.1,1.08c-.34.47-.82,1.12-1.45,2s-1.34,1.75-2.14,2.73-1.7,2-2.67,3a32.55,32.55,0,0,1-2.94,2.75,17.26,17.26,0,0,1-3,2,6,6,0,0,1-2.8.79A1.84,1.84,0,0,1,311,85a2.73,2.73,0,0,1-.49-1.69,6.55,6.55,0,0,1,.49-2.24,29.08,29.08,0,0,1,1.33-2.94l9.48-14.94a10.13,10.13,0,0,0-2.62,1.68,37.56,37.56,0,0,0-4.46,4.34c-1.48,1.68-2.94,3.47-4.39,5.35s-2.86,3.63-4.24,5.23a33.43,33.43,0,0,1-4,4,6.35,6.35,0,0,1-3.74,1.64,2.94,2.94,0,0,1-1.87-.59,1.85,1.85,0,0,1-.74-1.52,2.3,2.3,0,0,1,.74-1.84,2.37,2.37,0,0,1,1.54-.63c.72,0,1.08.3,1.08.89a1.3,1.3,0,0,1-.26.77,3.84,3.84,0,0,1-.58.63c-.22.18-.41.36-.59.53a.79.79,0,0,0-.25.54c0,.1.12.23.37.4a1.55,1.55,0,0,0,.89.26A4.16,4.16,0,0,0,301,84a19.52,19.52,0,0,0,2.71-2.38c1-1,2-2.13,3-3.41l3.17-4q1.64-2,3.3-4t3.29-3.64a25.51,25.51,0,0,1,3.17-2.78,8.73,8.73,0,0,1,2.67-1.4Z" transform="translate(-58.6 -24.11)"/><path d="M347.39,62.07h1.86L338.79,78.69c-.31.47-.61,1-.91,1.47s-.57,1-.81,1.52a10.36,10.36,0,0,0-.59,1.4,3.79,3.79,0,0,0-.21,1.12c.1.69.55,1,1.36,1a5.78,5.78,0,0,0,3.13-1.17A25,25,0,0,0,344.4,81c1.27-1.29,2.6-2.77,4-4.44s2.75-3.4,4.15-5.21l-.09,1.08c-.34.47-.83,1.12-1.45,2s-1.34,1.75-2.15,2.73-1.69,2-2.66,3a32.55,32.55,0,0,1-2.94,2.75,17.65,17.65,0,0,1-3,2,6,6,0,0,1-2.8.79,1.82,1.82,0,0,1-1.56-.65,2.73,2.73,0,0,1-.49-1.69,6.55,6.55,0,0,1,.49-2.24,27,27,0,0,1,1.33-2.94l9.48-14.94a10,10,0,0,0-2.62,1.68,37.56,37.56,0,0,0-4.46,4.34c-1.48,1.68-2.94,3.47-4.39,5.35s-2.86,3.63-4.25,5.23a32,32,0,0,1-4,4,6.3,6.3,0,0,1-3.73,1.64,2.94,2.94,0,0,1-1.87-.59,1.83,1.83,0,0,1-.75-1.52,2.28,2.28,0,0,1,.75-1.84,2.37,2.37,0,0,1,1.54-.63c.72,0,1.08.3,1.08.89a1.3,1.3,0,0,1-.26.77,3.9,3.9,0,0,1-.59.63c-.21.18-.41.36-.58.53a.8.8,0,0,0-.26.54c0,.1.13.23.38.4a1.53,1.53,0,0,0,.89.26,4.16,4.16,0,0,0,2.33-.89,20.12,20.12,0,0,0,2.71-2.38c1-1,2-2.13,3-3.41l3.17-4q1.63-2,3.29-4t3.3-3.64a24.15,24.15,0,0,1,3.17-2.78,8.69,8.69,0,0,1,2.66-1.4Z" transform="translate(-58.6 -24.11)"/><path d="M377.83,64.36a23,23,0,0,1-7.05,6.35,19.4,19.4,0,0,1-3.6,1.63q-.89.28-1.65.45A11.79,11.79,0,0,1,364,73c-.5.77-1,1.51-1.47,2.19s-1,1.34-1.47,2-1,1.22-1.5,1.78-1,1.1-1.54,1.63a29.83,29.83,0,0,1-3.31,2.66,23.65,23.65,0,0,1-3.79,2.1,4.1,4.1,0,0,1-1.77.38,2.94,2.94,0,0,1-3-3.37,9.83,9.83,0,0,1,.85-3.59,25.72,25.72,0,0,1,2.24-4.39,39.3,39.3,0,0,1,3.27-4.58,40,40,0,0,1,3.87-4.06c.68-.59,1.36-1.13,2-1.61a16.61,16.61,0,0,1,2.08-1.28,8,8,0,0,1,3.92-1.12,2.37,2.37,0,0,1,1.87.79,4.27,4.27,0,0,1,.65,2.66v.19a3.1,3.1,0,0,1-.07.63c0,.23-.1.5-.16.82a6.4,6.4,0,0,1-.26.86l-.35,1c-.12.31-.24.62-.35.93s-.24.64-.39,1l-.45,1c-.14.29-.29.57-.44.82.5,0,1-.09,1.47-.17s1-.18,1.42-.3a10.61,10.61,0,0,0,1.45-.52,13.27,13.27,0,0,0,1.54-.79A29.69,29.69,0,0,0,373.72,68a51.88,51.88,0,0,0,4.16-4.3Zm-11.58,1a4.89,4.89,0,0,0-.42-2.38,1.39,1.39,0,0,0-1.26-.66,6.64,6.64,0,0,0-3.46,1.17c-.62.4-1.25.86-1.89,1.35a19.45,19.45,0,0,0-1.89,1.69,38.39,38.39,0,0,0-3.64,4.2Q352,73,350.51,75.38c-.43.78-.84,1.54-1.21,2.28s-.7,1.48-1,2.2a10.61,10.61,0,0,0-.79,3.5c0,1.28.54,1.92,1.63,1.92a3.42,3.42,0,0,0,1.49-.33,18.07,18.07,0,0,0,3.27-1.87,28.4,28.4,0,0,0,3.41-2.94,40.58,40.58,0,0,0,3.22-3.64c.53-.66,1-1.31,1.47-2s.88-1.33,1.29-2,.78-1.3,1.12-1.94a20,20,0,0,0,.89-1.89A12.86,12.86,0,0,0,366.25,65.34Z" transform="translate(-58.6 -24.11)"/></g><g id="f93bad69-2efc-4545-afc7-d640ad8b31ba" data-name="Слой 2"><path class="a5dc365c-2ddc-45fd-a50b-f8e614699c3c" d="M103.48,117.26c-4.36-11,8.77-17.68,16.47-15a20,20,0,0,0,9.37,1.23c4.81-.44,4.74-2.54,4.7-4.64,0-1-.19-2-.17-3a8.5,8.5,0,0,1,.07-.87,2.42,2.42,0,0,1,1.46-1.77,2.64,2.64,0,0,0,1.79-2.6,3.17,3.17,0,0,0-2.8-2.8c.24-.06.48-.13.71-.21,1.89-.68,2.9-1.94,2.77-3.11-.11-1-1-1.86-2.85-2.29.08-.12.16-.22.24-.32a13,13,0,0,1,2-2s3.5-1.5,3.19-4a1.8,1.8,0,0,0-.4-.93,59.22,59.22,0,0,1-8.47-10.63l.06-.29a41.74,41.74,0,0,0,1.16-10.18,55,55,0,0,0-2.88-15.44c-.13-.4-.24-.8-.35-1.2l-.09-.34q-.14-.48-.24-1l-.06-.25c-.09-.39-.17-.77-.25-1.15l-.06-.31c-.06-.3-.11-.59-.16-.87l-.06-.3c-.06-.36-.12-.71-.17-1.05,0,0,0-.08,0-.12,0-.31-.09-.6-.12-.88l0-.23c0-.3-.08-.58-.11-.84h0c0-.3-.06-.56-.09-.81h0a3.32,3.32,0,0,1-.24.62c0,.19-.1.37-.16.56-2.87,22.82-2.45,16.86-19,39-16.25,21.78-20.67,35.18-11.56,51,.3.52,4.47,7.37,1.28,7.2C105.65,127.87,114,143.77,103.48,117.26Z" transform="translate(-58.6 -24.11)"/><path class="ee881def-0d26-4170-a16c-81b4d56d5e26" d="M128.73,25.71c-.76-1.17-20.16-5.26-36.14,22-14.49,24.66-7.46,53.1-6.1,58.1C88,111.38,92.78,133,112.83,145c22.65,13.48,47.85,5.25,52.43,4.09-3.56.58-26.93,7.48-46.47-9-4.46-3.77-11.42-15.13-14-26.24-1.71-7.34-7-30.33,4.66-46.21,4.66-6.33,10.62-10.29,15.4-20.83,1.7-3.74,2.33-8.21,3.59-18.21a5.15,5.15,0,0,0,.16-.56,3.22,3.22,0,0,0,.24-.61h0A7.29,7.29,0,0,0,128.73,25.71Z" transform="translate(-58.6 -24.11)"/><path class="bc42be95-b369-487d-8465-46f0d879064a" d="M123.11,64.28c3.15.71,5.49,7.34-4.32,2.46a3.21,3.21,0,0,1-2.15-2.46C124.38,66.75,124.72,65.38,123.11,64.28Z" transform="translate(-58.6 -24.11)"/><path class="ed2abda1-d67f-4a85-ba4b-86573079b85e" d="M114.89,24.11C93,33.65,77.11,55.23,79.15,90.74S96.51,156.88,132.26,163c-40.17.68-73.45-63.75-64-102.47C77.21,23.83,114.89,24.11,114.89,24.11Z" transform="translate(-58.6 -24.11)"/><path class="edb1b621-ed4c-4cd8-b6f5-2ed501cf6465" d="M90.51,27.94C53,52,62,86,70.13,111.77,48.43,62,58.56,37.82,90.51,27.94Z" transform="translate(-58.6 -24.11)"/></g></svg>