<svg width="207" height="777" viewBox="0 0 207 777" fill="none" xmlns="http://www.w3.org/2000/svg">
<path d="M116.5 2C71.5 17.1667 -7.5 65.8 36.5 139C91.5 230.5 208.5 243 199.5 301C190.5 359 57.5 368.5 46 445.5C39.2792 490.5 36.5 523.5 135.5 588.5C214.7 640.5 144.167 734.5 99 775" stroke="#CFAC74" stroke-width="3"/>
<circle cx="24.5" cy="105.5" r="23.5" fill="#FFFFFD" stroke="#CFAC74" stroke-width="2"/>
<path d="M24.22 116V95.9L25.18 96.92H19.27V95H26.38V116H24.22Z" fill="#CFAC74"/>
<circle cx="182.5" cy="267.5" r="23.5" fill="#FFFFFD" stroke="#CFAC74" stroke-width="2"/>
<path d="M175.17 278V276.47L183.9 267.92C184.7 267.14 185.3 266.46 185.7 265.88C186.1 265.28 186.37 264.72 186.51 264.2C186.65 263.68 186.72 263.19 186.72 262.73C186.72 261.51 186.3 260.55 185.46 259.85C184.64 259.15 183.42 258.8 181.8 258.8C180.56 258.8 179.46 258.99 178.5 259.37C177.56 259.75 176.75 260.34 176.07 261.14L174.54 259.82C175.36 258.86 176.41 258.12 177.69 257.6C178.97 257.08 180.4 256.82 181.98 256.82C183.4 256.82 184.63 257.05 185.67 257.51C186.71 257.95 187.51 258.6 188.07 259.46C188.65 260.32 188.94 261.33 188.94 262.49C188.94 263.17 188.84 263.84 188.64 264.5C188.46 265.16 188.12 265.86 187.62 266.6C187.14 267.32 186.43 268.14 185.49 269.06L177.48 276.92L176.88 276.08H189.9V278H175.17Z" fill="#CFAC74"/>
<circle cx="86.5" cy="391.5" r="23.5" fill="#FFFFFD" stroke="#CFAC74" stroke-width="2"/>
<path d="M85.83 402.18C84.31 402.18 82.87 401.94 81.51 401.46C80.17 400.96 79.09 400.3 78.27 399.48L79.32 397.77C80 398.47 80.91 399.05 82.05 399.51C83.21 399.97 84.47 400.2 85.83 400.2C87.57 400.2 88.9 399.82 89.82 399.06C90.76 398.3 91.23 397.28 91.23 396C91.23 394.72 90.77 393.7 89.85 392.94C88.95 392.18 87.52 391.8 85.56 391.8H84.06V390.21L90.54 382.08L90.84 382.92H79.14V381H92.64V382.53L86.16 390.66L85.11 389.97H85.92C88.44 389.97 90.32 390.53 91.56 391.65C92.82 392.77 93.45 394.21 93.45 395.97C93.45 397.15 93.17 398.21 92.61 399.15C92.05 400.09 91.2 400.83 90.06 401.37C88.94 401.91 87.53 402.18 85.83 402.18Z" fill="#CFAC74"/>
<circle cx="63.5" cy="516.5" r="23.5" fill="#FFFFFD" stroke="#CFAC74" stroke-width="2"/>
<path d="M55.2 517.48V515.92L66.33 502H68.73L57.69 515.92L56.52 515.56H73.41V517.48H55.2ZM67.05 523V517.48L67.11 515.56V510.7H69.21V523H67.05Z" fill="#CFAC74"/>
<circle cx="170.5" cy="671.5" r="23.5" fill="#FFFFFD" stroke="#CFAC74" stroke-width="2"/>
<path d="M170.19 682.18C168.69 682.18 167.26 681.94 165.9 681.46C164.54 680.96 163.46 680.3 162.66 679.48L163.71 677.77C164.37 678.47 165.27 679.05 166.41 679.51C167.57 679.97 168.82 680.2 170.16 680.2C171.94 680.2 173.29 679.81 174.21 679.03C175.15 678.23 175.62 677.19 175.62 675.91C175.62 675.01 175.4 674.24 174.96 673.6C174.54 672.94 173.82 672.43 172.8 672.07C171.78 671.71 170.38 671.53 168.6 671.53H164.13L165.21 661H176.7V662.92H166.08L167.19 661.87L166.26 670.69L165.15 669.61H169.08C171.2 669.61 172.9 669.87 174.18 670.39C175.46 670.91 176.38 671.64 176.94 672.58C177.52 673.5 177.81 674.58 177.81 675.82C177.81 677 177.53 678.08 176.97 679.06C176.41 680.02 175.57 680.78 174.45 681.34C173.33 681.9 171.91 682.18 170.19 682.18Z" fill="#CFAC74"/>
</svg>
