<svg width="51" height="50" viewBox="0 0 51 50" fill="none" xmlns="http://www.w3.org/2000/svg">
<g id="phon" clip-path="url(#clip0_185_38)">
<g id="Group">
<g id="Group_2">
<path id="Vector" d="M14.5616 7.5C13.7606 7.5 13.0075 7.81289 12.4405 8.37989C11.9385 8.88189 11.3624 9.46795 10.9209 9.91895C10.4014 10.4479 9.99929 11.1017 9.76079 11.8047C9.76079 11.8047 8.18259 16.4143 8.16509 16.4668C8.02659 16.8828 8.02845 17.34 8.17095 17.752C9.47345 21.5135 13.0246 27.545 18.0206 32.541C23.0166 37.537 29.0496 41.0881 32.8096 42.3906C33.0186 42.4631 33.2395 42.498 33.46 42.498C33.675 42.498 33.8893 42.465 34.0948 42.3945C34.1473 42.3785 38.7569 40.8008 38.7569 40.8008C39.4619 40.5628 40.1141 40.1601 40.6456 39.6406C41.0946 39.1991 41.6807 38.6231 42.1827 38.1211C42.7492 37.5546 43.0616 36.801 43.0616 36C43.0616 35.199 42.7492 34.4454 42.1827 33.8789L37.6827 29.3789C37.1162 28.8124 36.3626 28.5 35.5616 28.5C34.7606 28.5 34.007 28.8124 33.4405 29.3789C32.923 29.8984 31.2139 31.615 29.6299 33.209L28.96 33.8828C26.2315 32.4783 23.6262 31.0274 21.5791 28.9824C19.5342 26.9374 18.0833 24.3321 16.6788 21.6016L17.0596 21.2246C18.7296 19.5646 20.6317 17.6721 21.1827 17.1211C21.7492 16.5546 22.0616 15.801 22.0616 15C22.0616 14.1975 21.7492 13.4454 21.1827 12.8789L16.6827 8.37891C16.1162 7.81241 15.3626 7.5 14.5616 7.5L14.5616 7.5ZM14.5616 8.5C15.0946 8.5 15.5986 8.70694 15.9756 9.08594L20.4756 13.5859C20.8546 13.9629 21.0616 14.465 21.0616 15C21.0616 15.533 20.8541 16.0351 20.4756 16.4141C20.4322 16.4575 20.2099 16.678 20.1504 16.7373L16.4874 13.0742C16.3899 12.9767 16.2313 12.9767 16.1338 13.0742C16.0363 13.1717 16.0363 13.3302 16.1338 13.4277L19.7959 17.0898C18.9999 17.8835 17.7485 19.131 16.3555 20.5156L15.7149 21.1504C15.5604 21.3049 15.5226 21.5389 15.6221 21.7344C17.1161 24.6544 18.6416 27.4609 20.8721 29.6894C23.1006 31.9199 25.9072 33.4454 28.8272 34.9394C29.0227 35.037 29.2567 35.0022 29.4112 34.8477L30.3389 33.9141C31.9209 32.3226 33.628 30.6054 34.1475 30.0859C34.5245 29.7069 35.0286 29.5 35.5616 29.5C36.0966 29.5 36.5986 29.7069 36.9756 30.0859L41.4756 34.5859C41.8546 34.9649 42.0616 35.467 42.0616 36C42.0616 36.533 41.8546 37.0346 41.4766 37.4141C41.37 37.5207 41.2625 37.626 41.1504 37.7373L37.4874 34.0742C37.3899 33.9767 37.2313 33.9767 37.1338 34.0742C37.0363 34.1717 37.0363 34.3302 37.1338 34.4277L40.794 38.0879C40.4997 38.3788 40.1943 38.684 39.9454 38.9277C39.5214 39.3417 38.9991 39.662 38.4346 39.8555C38.4346 39.8555 33.8564 41.4218 33.7784 41.4473C33.5654 41.5193 33.3448 41.5178 33.1358 41.4453C29.4838 40.1813 23.6126 36.7185 18.7276 31.834C13.8426 26.9495 10.3798 21.0783 9.11626 17.4258C9.04376 17.2168 9.0438 16.9962 9.1143 16.7852C9.1378 16.7132 10.7061 12.1299 10.7061 12.1279C10.8971 11.5654 11.2198 11.0412 11.6358 10.6172C12.0733 10.1677 12.6475 9.58594 13.1475 9.08594C13.5245 8.70694 14.0286 8.5 14.5616 8.5L14.5616 8.5ZM28.0616 8.5C27.7851 8.5 27.5616 8.7235 27.5616 9C27.5616 9.2765 27.7851 9.5 28.0616 9.5C35.5056 9.5 41.5616 15.556 41.5616 23C41.5616 23.2765 41.7851 23.5 42.0616 23.5C42.3381 23.5 42.5616 23.2765 42.5616 23C42.5616 15.005 36.0566 8.5 28.0616 8.5ZM14.3106 11.001C14.2466 11.001 14.1826 11.0255 14.1338 11.0742C14.0363 11.1717 14.0363 11.3302 14.1338 11.4277L15.1338 12.4277C15.1823 12.4747 15.2471 12.5 15.3116 12.5C15.3761 12.5 15.4404 12.4747 15.4874 12.4277C15.5849 12.3302 15.5849 12.1717 15.4874 12.0742L14.4874 11.0742C14.4386 11.0255 14.3746 11.001 14.3106 11.001ZM28.0616 12.5C27.7851 12.5 27.5616 12.7235 27.5616 13C27.5616 13.2765 27.7851 13.5 28.0616 13.5C33.3001 13.5 37.5616 17.7615 37.5616 23C37.5616 23.2765 37.7851 23.5 38.0616 23.5C38.3381 23.5 38.5616 23.2765 38.5616 23C38.5616 17.2105 33.8511 12.5 28.0616 12.5ZM28.0616 16.5C27.7851 16.5 27.5616 16.7235 27.5616 17C27.5616 17.2765 27.7851 17.5 28.0616 17.5C31.0941 17.5 33.5616 19.9675 33.5616 23C33.5616 23.2765 33.7851 23.5 34.0616 23.5C34.3381 23.5 34.5616 23.2765 34.5616 23C34.5616 19.416 31.6456 16.5 28.0616 16.5ZM35.3106 32.001C35.2466 32.001 35.1826 32.0255 35.1338 32.0742C35.0363 32.1717 35.0363 32.3302 35.1338 32.4277L36.1338 33.4277C36.1823 33.4747 36.2471 33.5 36.3116 33.5C36.3761 33.5 36.4404 33.4747 36.4874 33.4277C36.5849 33.3302 36.5849 33.1717 36.4874 33.0742L35.4874 32.0742C35.4386 32.0255 35.3746 32.001 35.3106 32.001Z" fill="#CFAC74"/>
</g>
</g>
</g>
<defs>
<clipPath id="clip0_185_38">
<rect width="50" height="50" fill="white" transform="translate(0.561523)"/>
</clipPath>
</defs>
</svg>
