<svg width="51" height="50" viewBox="0 0 51 50" fill="none" xmlns="http://www.w3.org/2000/svg">
<g id="time" clip-path="url(#clip0_185_33)">
<g id="Group">
<g id="Group_2">
<path id="Vector" d="M26.0986 3.98047C14.9326 3.98047 5.84863 13.0645 5.84863 24.2305C5.84863 35.3965 14.9326 44.4805 26.0986 44.4805C37.2646 44.4805 46.3486 35.3965 46.3486 24.2305C46.3486 13.0645 37.2646 3.98047 26.0986 3.98047ZM26.0986 4.98047C36.7126 4.98047 45.3486 13.616 45.3486 24.2305C45.3486 34.845 36.7131 43.4805 26.0986 43.4805C15.4841 43.4805 6.84863 34.845 6.84863 24.2305C6.84863 13.616 15.4841 4.98047 26.0986 4.98047ZM25.584 6.77246C24.4513 6.79544 23.3126 6.93066 22.1826 7.18066C17.7146 8.16916 13.906 10.8402 11.459 14.7012C6.37898 22.7147 8.79523 33.4351 16.8447 38.5996C19.6852 40.4221 22.907 41.3633 26.1855 41.3633C27.4325 41.3633 28.6876 41.2267 29.9336 40.9512C34.4016 39.9627 38.2112 37.2926 40.6582 33.4316C42.6867 30.2306 43.5868 26.537 43.2598 22.75C43.2483 22.612 43.1233 22.508 42.9893 22.5225C42.8518 22.534 42.7502 22.6555 42.7617 22.793C42.7815 23.0225 42.7961 23.2518 42.8066 23.4805H40.4629C40.3249 23.4805 40.2129 23.5925 40.2129 23.7305C40.2129 23.8685 40.3249 23.9805 40.4629 23.9805H42.8203C42.875 27.2392 41.9931 30.3922 40.2363 33.1641C39.6456 34.096 38.9722 34.9566 38.2285 35.7383L36.9033 34.4004C36.8063 34.3024 36.6468 34.3009 36.5498 34.3984C36.4518 34.4954 36.4509 34.654 36.5479 34.752L37.876 36.0918C35.6816 38.2624 32.9183 39.7799 29.8262 40.4639C28.5719 40.7412 27.3079 40.8675 26.0527 40.8574C26.0552 40.8434 26.0615 40.8311 26.0615 40.8164V38.8164C26.0615 38.6784 25.9495 38.5664 25.8115 38.5664C25.6735 38.5664 25.5615 38.6784 25.5615 38.8164V40.8164C25.5615 40.8283 25.5668 40.8382 25.5684 40.8496C22.5988 40.7391 19.6944 39.8351 17.1143 38.1797C16.1016 37.53 15.1826 36.7888 14.3574 35.9756L15.6328 34.6895C15.7298 34.5915 15.7289 34.4329 15.6309 34.3359C15.5334 34.2384 15.3748 34.2389 15.2773 34.3369L14.0078 35.6172C10.9682 32.4381 9.32894 28.2356 9.30469 23.9717C9.31957 23.9744 9.33296 23.9805 9.34863 23.9805H10.8184C10.9569 23.9805 11.0684 23.8685 11.0684 23.7305C11.0684 23.5925 10.9564 23.4805 10.8184 23.4805H9.34863C9.33363 23.4805 9.32092 23.4867 9.30664 23.4893C9.37403 20.5554 10.2065 17.6105 11.8809 14.9688C12.5421 13.9256 13.3088 12.9759 14.1602 12.1221L15.3408 13.3135C15.3898 13.363 15.4546 13.3877 15.5186 13.3877C15.5821 13.3877 15.6458 13.3639 15.6943 13.3154C15.7923 13.2179 15.7933 13.0599 15.6963 12.9619L14.5166 11.7705C16.6648 9.74333 19.328 8.32538 22.291 7.66992C23.3808 7.4287 24.4779 7.29801 25.5703 7.27441C25.5678 7.28856 25.5615 7.30154 25.5615 7.3164V8.8164C25.5615 8.9544 25.6735 9.0664 25.8115 9.0664C25.9495 9.0664 26.0615 8.9544 26.0615 8.8164V7.3164C26.0615 7.30194 26.0561 7.28918 26.0537 7.27539C29.1947 7.29881 32.2793 8.20626 35.0029 9.95312C35.9119 10.5364 36.7518 11.2069 37.5264 11.9414L36.2148 13.2646C36.1178 13.3626 36.1188 13.5212 36.2168 13.6182C36.2653 13.6667 36.3291 13.6904 36.3926 13.6904C36.4571 13.6904 36.5213 13.6657 36.5703 13.6162L37.8877 12.2881C39.2433 13.6517 40.3641 15.2368 41.1924 16.9893C41.2524 17.1143 41.4009 17.1674 41.5254 17.1084C41.6499 17.0494 41.7035 16.9004 41.6445 16.7754C40.245 13.8139 38.042 11.3092 35.2725 9.53223C32.3317 7.64523 28.9819 6.70351 25.584 6.77246V6.77246ZM25.8486 10.4805C25.5721 10.4805 25.3486 10.7045 25.3486 10.9805V22.0059C25.3486 22.0866 25.3723 22.16 25.4062 22.2275C24.7802 22.5658 24.3486 23.2202 24.3486 23.9805C24.3486 24.2118 24.3962 24.4309 24.4688 24.6377L17.8438 31.3027C17.1143 32.0362 17.3793 32.4614 17.5273 32.6104C17.6393 32.7229 17.7824 32.7822 17.9404 32.7822C18.2739 32.7822 18.6086 32.516 18.8311 32.292L25.3701 25.7139C25.6607 25.8787 25.9912 25.9805 26.3486 25.9805C27.2829 25.9805 28.0635 25.334 28.2822 24.4668C28.305 24.47 28.325 24.4805 28.3486 24.4805H35.3486C35.6251 24.4805 35.8486 24.2565 35.8486 23.9805C35.8486 23.7045 35.6251 23.4805 35.3486 23.4805H28.3486C28.325 23.4805 28.305 23.491 28.2822 23.4941C28.2371 23.3153 28.1659 23.1483 28.0762 22.9922L29.1836 21.8779C29.6961 21.9639 30.4902 21.8853 30.8857 21.4873L31.835 20.5312C32.456 19.9067 32.456 18.8916 31.835 18.2676C31.2355 17.6641 30.1806 17.6641 29.5811 18.2676L28.6318 19.2227C28.2523 19.6047 28.1108 20.3517 28.1963 20.8867L26.9941 22.0967C26.7907 22.0268 26.5756 21.9805 26.3486 21.9805V10.9805C26.3486 10.7045 26.1251 10.4805 25.8486 10.4805L25.8486 10.4805ZM30.708 18.2998C31.0005 18.2998 31.275 18.4136 31.4805 18.6201C31.9075 19.0496 31.9075 19.7492 31.4805 20.1787L30.5313 21.1338C30.2748 21.3923 29.5735 21.4713 29.165 21.3633C29.0775 21.3398 28.9868 21.3657 28.9248 21.4287L27.7764 22.584C27.6829 22.4885 27.5815 22.4016 27.4707 22.3262L28.6455 21.1445C28.708 21.082 28.7325 20.9908 28.71 20.9053C28.612 20.5278 28.7133 19.8502 28.9863 19.5752L29.9355 18.6201C30.141 18.4131 30.4155 18.2998 30.708 18.2998ZM42.4521 19.7588C42.42 19.7536 42.3856 19.7544 42.3516 19.7627C42.2176 19.7957 42.1359 19.9314 42.1689 20.0654C42.2649 20.4574 42.3475 20.8593 42.415 21.2588C42.436 21.3813 42.5416 21.4668 42.6611 21.4668C42.6751 21.4668 42.6891 21.4659 42.7031 21.4639C42.8391 21.4404 42.9312 21.3108 42.9082 21.1748C42.8382 20.7633 42.7533 20.3503 42.6543 19.9463C42.6303 19.8458 42.5487 19.7744 42.4521 19.7588L42.4521 19.7588ZM26.3486 22.4805C27.1756 22.4805 27.8486 23.1535 27.8486 23.9805C27.8486 24.8075 27.1756 25.4805 26.3486 25.4805C25.5216 25.4805 24.8486 24.8075 24.8486 23.9805C24.8486 23.1535 25.5216 22.4805 26.3486 22.4805ZM24.7031 25.1113C24.7791 25.2215 24.866 25.3233 24.9619 25.416L18.4775 31.9395C18.2255 32.1925 18.0304 32.2822 17.9404 32.2822C17.9149 32.2822 17.9003 32.2768 17.8828 32.2588C17.8018 32.1773 17.9377 31.9183 18.1992 31.6553L24.7031 25.1113Z" fill="#CFAC74"/>
</g>
</g>
</g>
<defs>
<clipPath id="clip0_185_33">
<rect width="50" height="50" fill="white" transform="translate(0.561523)"/>
</clipPath>
</defs>
</svg>
