<svg width="51" height="50" viewBox="0 0 51 50" fill="none" xmlns="http://www.w3.org/2000/svg">
<g id="VK 1" clip-path="url(#clip0_186_60)">
<g id="Group">
<g id="Group_2">
<path id="Vector" d="M25.5615 7C15.636 7 7.56152 15.0745 7.56152 25C7.56152 34.9255 15.636 43 25.5615 43C35.487 43 43.5615 34.9255 43.5615 25C43.5615 15.0745 35.487 7 25.5615 7ZM25.5615 8C34.9355 8 42.5615 15.626 42.5615 25C42.5615 34.374 34.9355 42 25.5615 42C16.1875 42 8.56152 34.374 8.56152 25C8.56152 15.626 16.1875 8 25.5615 8ZM25.5615 9.5C17.0145 9.5 10.0615 16.4535 10.0615 25C10.0615 33.5465 17.0145 40.5 25.5615 40.5C34.1085 40.5 41.0615 33.5465 41.0615 25C41.0615 20.64 39.2095 16.4574 35.9795 13.5234C35.878 13.4309 35.7205 13.438 35.627 13.54C35.534 13.6425 35.5411 13.8006 35.6436 13.8936C38.7691 16.7326 40.5615 20.7805 40.5615 25C40.5615 33.271 33.8325 40 25.5615 40C17.2905 40 10.5615 33.271 10.5615 25C10.5615 16.729 17.2905 10 25.5615 10C27.337 10 29.0741 10.3066 30.7256 10.9121C30.8551 10.9601 30.9994 10.8937 31.0469 10.7637C31.0944 10.6337 31.0275 10.4909 30.8975 10.4434C29.191 9.81786 27.3955 9.5 25.5615 9.5L25.5615 9.5ZM32.3262 11.0723C32.2291 11.0666 32.133 11.1176 32.0869 11.2109C32.0259 11.3349 32.0767 11.4844 32.2002 11.5459C32.5342 11.7109 32.8646 11.8896 33.1836 12.0781C33.2236 12.1021 33.268 12.1133 33.3115 12.1133C33.397 12.1133 33.4799 12.0697 33.5264 11.9912C33.5964 11.8722 33.557 11.7189 33.4385 11.6484C33.109 11.4529 32.7664 11.2682 32.4219 11.0977C32.3912 11.0827 32.3585 11.0742 32.3262 11.0723L32.3262 11.0723ZM34.2686 12.2627C34.2056 12.2736 34.1469 12.3082 34.1074 12.3652C34.0279 12.4782 34.055 12.6344 34.168 12.7139C34.3345 12.8309 34.4982 12.9497 34.6592 13.0732C34.7047 13.1077 34.7585 13.125 34.8115 13.125C34.8865 13.125 34.9612 13.0913 35.0107 13.0273C35.0942 12.9173 35.0739 12.7603 34.9639 12.6768C34.7969 12.5493 34.6276 12.4242 34.4551 12.3037C34.3986 12.2645 34.3316 12.2518 34.2686 12.2627H34.2686ZM16.0869 19C15.7536 19 15.4967 19.0876 15.3389 19.2656C15.1811 19.4437 15.1543 19.6638 15.1543 19.8437C15.1543 20.0285 15.1962 20.3184 15.2959 20.7412C15.3956 21.164 15.5543 21.7062 15.792 22.3389C16.2675 23.6041 17.06 25.2305 18.3301 26.9688C20.1858 29.5077 22.6392 31 24.876 31C25.5404 31 25.9428 30.9294 26.2178 30.7227C26.4927 30.5159 26.5439 30.1882 26.5439 29.9111V27.6338V27.6328C26.5446 27.3458 26.5881 27.1801 26.625 27.124C26.6619 27.0678 26.6844 27.0508 26.8447 27.0508C26.9027 27.0508 27.0863 27.0955 27.3926 27.3233C27.6988 27.551 28.1251 27.9516 28.6924 28.6133C29.3474 29.3772 29.7313 29.9422 30.0674 30.3418C30.4035 30.7414 30.7472 31.001 31.21 31.001H33.2168C33.4848 31.001 33.7174 30.9444 33.8857 30.79C34.0541 30.6357 34.1187 30.4111 34.125 30.1826V30.1816C34.1283 30.0562 34.1104 29.9254 34.0742 29.7871L34.0723 29.7793L34.0693 29.7705C33.8955 29.2538 33.2978 28.1925 32.4287 27.1416V27.1406C31.949 26.5612 31.397 25.9791 31.2139 25.7168L31.2129 25.7158L31.2119 25.7139C31.0834 25.5347 31.0643 25.4555 31.0674 25.3965C31.0705 25.3327 31.116 25.2302 31.2246 25.0449L31.2266 25.041C31.2258 25.0422 31.2268 25.041 31.2295 25.0361C31.2322 25.0319 31.2363 25.0259 31.2432 25.0156C31.26 24.9904 31.2867 24.9512 31.3213 24.9004C31.3905 24.7987 31.4909 24.6507 31.6133 24.4697C31.8581 24.1079 32.19 23.6122 32.5303 23.0772C32.8705 22.5421 33.2193 21.9679 33.502 21.4453C33.7823 20.927 33.9962 20.4735 34.0732 20.1094C34.1177 19.9551 34.1159 19.8162 34.1113 19.7188C34.1045 19.5551 34.0734 19.3647 33.9307 19.2139C33.788 19.0632 33.5707 19 33.3086 19H31.3018C30.9979 19 30.7463 19.0991 30.5654 19.249C30.3845 19.399 30.2735 19.5888 30.1963 19.7627C30.1899 19.7759 28.9476 22.317 27.5449 23.9707C27.3229 24.2033 27.1581 24.3433 27.041 24.415C26.9344 24.4804 26.8722 24.4944 26.7979 24.4971C26.7927 24.4954 26.7899 24.4955 26.7822 24.4902C26.7555 24.472 26.7161 24.437 26.6797 24.3906C26.6068 24.2979 26.5449 24.1644 26.5449 24.0029V20.0273C26.5449 19.7406 26.518 19.4996 26.3818 19.2988C26.2457 19.098 25.9954 19 25.7334 19H22.2646C22.0431 19 21.8447 19.0967 21.7207 19.2402C21.5967 19.3837 21.54 19.5632 21.54 19.7412C21.54 20.0691 21.6808 20.2757 21.793 20.5303C21.9051 20.7849 22.0237 21.131 22.0615 21.8223V24.5859C22.0615 24.8445 22.0573 24.9159 22.0566 24.9766C22.0012 24.9649 21.8531 24.9033 21.6543 24.6924C21.4387 24.4638 21.186 24.112 20.9258 23.6641C20.4054 22.7681 19.85 21.4874 19.4053 19.9971L19.4043 19.9941L19.4033 19.9912C19.3014 19.6799 19.1956 19.4366 19.0078 19.2568C18.8201 19.0771 18.5609 19 18.2705 19L16.0869 19ZM16.0869 19.5H18.2705C18.4867 19.5 18.5771 19.5358 18.6621 19.6172C18.7471 19.6986 18.8362 19.8643 18.9287 20.1465C19.3832 21.6677 19.9484 22.9755 20.4941 23.915C20.7674 24.3855 21.0347 24.7643 21.291 25.0361C21.5473 25.308 21.7879 25.5 22.0908 25.5C22.1523 25.5 22.2069 25.5096 22.3027 25.4814C22.3986 25.4533 22.5098 25.3317 22.5361 25.2402C22.5887 25.0574 22.5615 24.9192 22.5615 24.5859V21.8018V21.7949C22.5209 21.0532 22.379 20.6219 22.25 20.3291C22.121 20.0363 22.04 19.9248 22.04 19.7412C22.04 19.6733 22.0644 19.6081 22.0996 19.5674C22.1348 19.5266 22.1742 19.5 22.2646 19.5H25.7334C25.8999 19.5 25.9305 19.5241 25.9678 19.5791C26.005 19.6341 26.0449 19.7821 26.0449 20.0273V24.0029C26.0449 24.2914 26.1536 24.5307 26.2861 24.6992C26.3524 24.7835 26.4243 24.8517 26.5 24.9033C26.5757 24.9549 26.6481 25 26.7734 25C26.9398 25 27.1221 24.9516 27.3027 24.8408C27.4834 24.7301 27.6718 24.5632 27.9131 24.3096L27.918 24.3047L27.9219 24.2998C29.3989 22.5606 30.6494 19.9736 30.6494 19.9736L30.6514 19.9697L30.6533 19.9658C30.7126 19.8322 30.7871 19.714 30.8838 19.6338C30.9805 19.5536 31.0986 19.5 31.3018 19.5H33.3086C33.496 19.5 33.5501 19.5383 33.5684 19.5576C33.5866 19.5769 33.6066 19.6254 33.6113 19.7393V19.7402C33.6156 19.8319 33.6157 19.9029 33.5937 19.9746L33.5908 19.9863L33.5879 19.9971C33.5367 20.2453 33.336 20.7023 33.0625 21.208C32.789 21.7137 32.4449 22.2805 32.1084 22.8096C31.7719 23.3386 31.4426 23.8298 31.1992 24.1895C31.0775 24.3693 30.9779 24.5167 30.9082 24.6191C30.8733 24.6703 30.8463 24.7095 30.8271 24.7383C30.8176 24.7527 30.8097 24.7643 30.8027 24.7754C30.8 24.7797 30.7967 24.7854 30.793 24.792C30.7919 24.7939 30.7914 24.7943 30.79 24.7969C30.787 24.8025 30.7756 24.8296 30.7754 24.8301C30.7754 24.8301 30.7726 24.841 30.7715 24.8467C30.6723 25.0165 30.5784 25.1722 30.5683 25.3711C30.5574 25.5818 30.6476 25.7844 30.8057 26.0049V26.0059C31.0511 26.3566 31.5805 26.9014 32.043 27.46C32.8729 28.4635 33.4657 29.5537 33.5918 29.9238C33.6164 30.0213 33.6276 30.104 33.626 30.1689C33.6218 30.32 33.5896 30.3826 33.5478 30.4209C33.5061 30.4592 33.4148 30.501 33.2168 30.501H31.21C30.9122 30.501 30.7561 30.3832 30.4502 30.0195C30.1443 29.6559 29.7437 29.0711 29.0723 28.2881C28.4895 27.6083 28.0437 27.1838 27.6914 26.9219C27.3391 26.66 27.0788 26.5508 26.8447 26.5508C26.5955 26.5508 26.3427 26.6431 26.207 26.8496C26.0713 27.0561 26.0445 27.3069 26.0439 27.6328V29.9111C26.0439 30.1451 26.0297 30.2375 25.917 30.3223C25.8044 30.4069 25.498 30.5 24.876 30.5C22.8648 30.5 20.5197 29.1179 18.7334 26.6738C17.4925 24.9756 16.7215 23.3892 16.2607 22.1631C16.0303 21.55 15.8776 21.0264 15.7832 20.626C15.6887 20.2256 15.6543 19.9355 15.6543 19.8437C15.6543 19.7167 15.6757 19.6396 15.7129 19.5977C15.7501 19.5557 15.8352 19.5 16.0869 19.5H16.0869Z" fill="#CFAC74"/>
</g>
</g>
</g>
<defs>
<clipPath id="clip0_186_60">
<rect width="50" height="50" fill="white" transform="translate(0.561523)"/>
</clipPath>
</defs>
</svg>
