<svg xmlns="http://www.w3.org/2000/svg" xmlns:xlink="http://www.w3.org/1999/xlink" viewBox="0 0 106.66 138.9"><defs><style>.a21bd5b6-ec23-4a39-b7e0-fe5376081a08{fill:none;stroke-miterlimit:10;stroke:url(#af81adf5-1f53-4070-aa7b-4cc6f78d32f0);}.e82941f9-4c00-4678-a471-94640ed54002{fill:url(#a322e73b-1845-4cb6-9c2c-1110e5a99a00);}.b8eb9b01-5e3e-4ec7-81b4-ec84636abc96{fill:url(#b3c68212-8980-435e-83f8-1939623f55a7);}.b0df1cd6-2012-46e7-9067-c33e381943d9{fill:url(#a5374c33-773c-4d8b-9612-4e92add34047);}.bdb3d2a7-472f-405c-9f23-80332dab73b0{fill:url(#a5fb8d1e-5005-4104-b607-318bd428d4c5);}</style><linearGradient id="af81adf5-1f53-4070-aa7b-4cc6f78d32f0" x1="91.99" y1="79.79" x2="140.95" y2="79.79" gradientUnits="userSpaceOnUse"><stop offset="0" stop-color="#e0ad4b"/><stop offset="0.66" stop-color="#f5ee97"/><stop offset="1" stop-color="#e1b04f"/></linearGradient><linearGradient id="a322e73b-1845-4cb6-9c2c-1110e5a99a00" x1="83.59" y1="88.69" x2="165.26" y2="88.69" xlink:href="#af81adf5-1f53-4070-aa7b-4cc6f78d32f0"/><linearGradient id="b3c68212-8980-435e-83f8-1939623f55a7" x1="116.64" y1="66.4" x2="125.84" y2="66.4" xlink:href="#af81adf5-1f53-4070-aa7b-4cc6f78d32f0"/><linearGradient id="a5374c33-773c-4d8b-9612-4e92add34047" x1="66.64" y1="93.56" x2="132.26" y2="93.56" xlink:href="#af81adf5-1f53-4070-aa7b-4cc6f78d32f0"/><linearGradient id="a5fb8d1e-5005-4104-b607-318bd428d4c5" x1="58.6" y1="69.86" x2="90.51" y2="69.86" xlink:href="#af81adf5-1f53-4070-aa7b-4cc6f78d32f0"/></defs><g id="bf7bbca7-1bd3-418c-a6b6-6fe2b27fb211" data-name="Слой 2"><path class="a21bd5b6-ec23-4a39-b7e0-fe5376081a08" d="M103.48,117.26c-4.36-11,8.77-17.68,16.47-15a20,20,0,0,0,9.37,1.23c4.81-.44,4.74-2.54,4.7-4.64,0-1-.19-2-.17-3a8.5,8.5,0,0,1,.07-.87,2.42,2.42,0,0,1,1.46-1.77,2.64,2.64,0,0,0,1.79-2.6,3.17,3.17,0,0,0-2.8-2.8c.24-.06.48-.13.71-.21,1.89-.68,2.9-1.94,2.77-3.11-.11-1-1-1.86-2.85-2.29.08-.12.16-.22.24-.32a13,13,0,0,1,2-2s3.5-1.5,3.19-4a1.8,1.8,0,0,0-.4-.93,59.22,59.22,0,0,1-8.47-10.63l.06-.29a41.74,41.74,0,0,0,1.16-10.18,55,55,0,0,0-2.88-15.44c-.13-.4-.24-.8-.35-1.2l-.09-.34q-.14-.48-.24-1l-.06-.25c-.09-.39-.17-.77-.25-1.15l-.06-.31c-.06-.3-.11-.59-.16-.87l-.06-.3c-.06-.36-.12-.71-.17-1.05,0,0,0-.08,0-.12,0-.31-.09-.6-.12-.88l0-.23c0-.3-.08-.58-.11-.84h0c0-.3-.06-.56-.09-.81h0a3.32,3.32,0,0,1-.24.62c0,.19-.1.37-.16.56-2.87,22.82-2.45,16.86-19,39-16.25,21.78-20.67,35.18-11.56,51,.3.52,4.47,7.37,1.28,7.2C105.65,127.87,114,143.77,103.48,117.26Z" transform="translate(-58.6 -24.11)"/><path class="e82941f9-4c00-4678-a471-94640ed54002" d="M128.73,25.71c-.76-1.17-20.16-5.26-36.14,22-14.49,24.66-7.46,53.1-6.1,58.1C88,111.38,92.78,133,112.83,145c22.65,13.48,47.85,5.25,52.43,4.09-3.56.58-26.93,7.48-46.47-9-4.46-3.77-11.42-15.13-14-26.24-1.71-7.34-7-30.33,4.66-46.21,4.66-6.33,10.62-10.29,15.4-20.83,1.7-3.74,2.33-8.21,3.59-18.21a5.15,5.15,0,0,0,.16-.56,3.22,3.22,0,0,0,.24-.61h0A7.29,7.29,0,0,0,128.73,25.71Z" transform="translate(-58.6 -24.11)"/><path class="b8eb9b01-5e3e-4ec7-81b4-ec84636abc96" d="M123.11,64.28c3.15.71,5.49,7.34-4.32,2.46a3.21,3.21,0,0,1-2.15-2.46C124.38,66.75,124.72,65.38,123.11,64.28Z" transform="translate(-58.6 -24.11)"/><path class="b0df1cd6-2012-46e7-9067-c33e381943d9" d="M114.89,24.11C93,33.65,77.11,55.23,79.15,90.74S96.51,156.88,132.26,163c-40.17.68-73.45-63.75-64-102.47C77.21,23.83,114.89,24.11,114.89,24.11Z" transform="translate(-58.6 -24.11)"/><path class="bdb3d2a7-472f-405c-9f23-80332dab73b0" d="M90.51,27.94C53,52,62,86,70.13,111.77,48.43,62,58.56,37.82,90.51,27.94Z" transform="translate(-58.6 -24.11)"/></g></svg>