<?xml version="1.0" standalone="no"?>
<!DOCTYPE svg PUBLIC "-//W3C//DTD SVG 20010904//EN"
 "http://www.w3.org/TR/2001/REC-SVG-20010904/DTD/svg10.dtd">
<svg version="1.0" xmlns="http://www.w3.org/2000/svg"
 width="140.000000pt" height="140.000000pt" viewBox="0 0 140.000000 140.000000"
 preserveAspectRatio="xMidYMid meet">
<metadata>
Created by potrace 1.14, written by Peter Selinger 2001-2017
</metadata>
<g transform="translate(0.000000,140.000000) scale(0.100000,-0.100000)"
fill="#000000" stroke="none">
<path d="M601 1374 c-366 -98 -463 -522 -223 -974 106 -198 280 -355 435 -390
57 -12 44 4 -20 25 -120 41 -237 143 -306 265 -37 68 -82 192 -92 257 -3 21
-9 62 -14 91 -14 87 -5 259 17 344 46 170 144 299 286 375 l41 22 -35 0 c-19
0 -59 -7 -89 -15z"/>
<path d="M765 1381 c-150 -38 -292 -218 -333 -423 -55 -273 42 -600 220 -735
118 -90 219 -119 406 -114 28 0 52 5 52 10 0 5 -14 8 -32 7 -84 -6 -214 36
-287 94 -88 70 -186 276 -160 334 23 49 101 66 187 40 13 -4 22 -2 22 4 0 6
-8 11 -17 11 -10 0 -37 3 -60 7 -53 8 -84 1 -121 -31 l-29 -24 -3 42 c-14 183
3 253 84 359 130 171 143 192 157 264 l13 69 18 -75 c13 -52 18 -100 15 -157
l-3 -83 44 -56 44 -56 -26 -25 c-27 -25 -34 -43 -16 -43 19 0 10 -27 -12 -37
l-23 -10 23 -7 c23 -8 29 -21 12 -31 -14 -9 -32 -45 -23 -45 16 0 42 56 37 77
-3 11 -1 24 5 27 7 5 7 13 -2 27 -10 18 -9 23 11 36 31 22 28 37 -19 93 l-42
49 1 96 c0 66 -6 117 -19 163 -10 37 -19 84 -19 104 0 21 -1 38 -2 38 -42 7
-79 7 -103 1z"/>
<path d="M394 1320 c-193 -94 -259 -250 -213 -504 13 -74 82 -276 94 -276 2 0
0 12 -6 28 -6 15 -21 70 -33 123 -27 112 -28 258 -2 347 27 99 103 203 199
276 58 44 44 46 -39 6z"/>
<path d="M750 980 c0 -10 48 -30 70 -30 21 0 25 8 12 25 -8 11 -82 15 -82 5z"/>
<path d="M912 638 c2 -16 -5 -24 -32 -34 -24 -9 -29 -13 -14 -13 28 -1 57 22
59 48 1 11 -2 21 -7 21 -5 0 -8 -10 -6 -22z"/>
<path d="M1188 133 c7 -3 16 -2 19 1 4 3 -2 6 -13 5 -11 0 -14 -3 -6 -6z"/>
<path d="M1133 123 c9 -2 23 -2 30 0 6 3 -1 5 -18 5 -16 0 -22 -2 -12 -5z"/>
<path d="M868 3 c7 -3 16 -2 19 1 4 3 -2 6 -13 5 -11 0 -14 -3 -6 -6z"/>
</g>
</svg>
